# xmcd
#
# Track frame offsets:
#	150
#	13272
#	28815
#	46167
#	70420
#	79460
#	88770
#	107505
#	118655
#	127227
#	139922
#	149660
#	161685
#	171012
#	182800
#	198172
#
# Disc length: 2811 seconds
#
# Revision: 0
# Processed by: cddbd v1.5.2PL0 Copyright (c) Steve Scherf et al.
# Submitted via: audiograbber 1.83.01
#
DISCID=ef0af910
DTITLE=Various Artist - 30!!! Years Bear Family Records - Disc 1
DYEAR=2005
DGENRE=Country
TTITLE0=buddy miller and emmylou harris - ole slewfoot
TTITLE1=richard bennett - big two step (instrumental)
TTITLE2=roland heinrich - elmer and the bear
TTITLE3=marc bristol - grizzly bear
TTITLE4=victor avila - bear with my baby
TTITLE5=alan clark - can't bear to be without you
TTITLE6=rip masters - bare knuckle piano
TTITLE7=joey buttler - i've got a bear on my back
TTITLE8=dan mcnamara - unbearable kool
TTITLE9=montijo - mama's teddy bear
TTITLE10=deke dickerson - bear family boogie
TTITLE11=jim rorie - the bull and bear
TTITLE12=dawn shipley and the sharp shooters - bear with me baby
TTITLE13=stephan bardo - bear market blues
TTITLE14=count smokula - transylbearian woods
TTITLE15=chuck e. weiss - booga you bare
EXTD=
EXTT0=
EXTT1=
EXTT2=
EXTT3=
EXTT4=
EXTT5=
EXTT6=
EXTT7=
EXTT8=
EXTT9=
EXTT10=
EXTT11=
EXTT12=
EXTT13=
EXTT14=
EXTT15=
PLAYORDER=
